<svg version="1.1" id="Crescent-Moon--Streamline-Noto-Emoji" xmlns="http://www.w3.org/2000/svg" xmlns:xlink="http://www.w3.org/1999/xlink" x="0" y="0" viewBox="0 0 32 32" xml:space="preserve" enable-background="new 0 0 128 128" height="32" width="32">
  <desc>
    Crescent Moon Streamline Emoji: https://streamlinehq.com
  </desc>
  <path d="M25.310575 6.68625 23.78655 1.6131l-0.519375 -0.69775s-0.03935 -0.0472 -0.0446 -0.06295c-0.01575 -0.065575 -0.0341 -0.173125 0.02885 -0.25445 0.047225 -0.060325 0.128525 -0.07605 0.222975 -0.0682 0.036725 0.002625 0.1259 0.036725 0.26755 0.115425 1.392875 0.78695 7.39985 5.7053 7.906125 13.645525 0.2859 4.48555 -1.350925 9.285875 -4.792475 12.633 -3.268425 3.1766 -8.20515 5.15445 -13.635025 4.380625 -8.11595 -1.1568 -11.599475 -6.0883 -12.5097 -7.71725 -0.16 -0.28855 -0.2387 -0.472175 -0.25445 -0.516775 -0.2151 -0.563975 -0.157375 -0.849875 0.0446 -0.915475 0.05245 -0.015725 0.1705 0.00525 0.236075 0.0787 0.262325 0.2938 0.739725 0.485275 0.739725 0.485275l3.3786 2.735925 16.759175 1.2696 5.941375 -12.953 -2.2454 -7.085075Z" fill="#FFB803" stroke-width="0.25"></path>
  <path d="M18.577 22.118125c4.18915 -2.5969 6.235175 -7.009025 6.397825 -11.0906 0.236075 -5.978125 -1.75225 -10.17775 -1.75225 -10.17775s3.675 3.0166 5.68695 7.36575 2.3608 11.507675 -2.0408 16.63065c-4.839675 5.6266 -11.326675 5.95975 -15.40565 4.90525C2.99825 27.5611 0.68465 22.18895 0.68465 22.18895s4.663925 2.61 9.90755 2.334575c3.903225 -0.2046 5.912525 -1.120075 7.9848 -2.4054Z" fill="#FFCA29" stroke-width="0.25"></path>
</svg>